<mxfile host="app.diagrams.net" modified="2020-07-16T11:05:57.684Z" agent="5.0 (X11)" etag="8t7nrZbXeIynvI3utfq3" version="13.4.4" type="github">
  <diagram id="KoGSpYwKqd-lorviJZdT" name="Page-1">
    <mxGraphModel dx="1414" dy="758" grid="1" gridSize="10" guides="1" tooltips="1" connect="1" arrows="1" fold="1" page="1" pageScale="1" pageWidth="690" pageHeight="980" math="0" shadow="0">
      <root>
        <mxCell id="0" />
        <mxCell id="1" parent="0" />
        <mxCell id="ns0X5BkVeZQu3-cm_ezH-1" style="edgeStyle=none;rounded=0;orthogonalLoop=1;jettySize=auto;html=1;endArrow=none;endFill=0;strokeWidth=2;" edge="1" parent="1" source="ns0X5BkVeZQu3-cm_ezH-90" target="ns0X5BkVeZQu3-cm_ezH-9">
          <mxGeometry relative="1" as="geometry" />
        </mxCell>
        <mxCell id="ns0X5BkVeZQu3-cm_ezH-2" style="edgeStyle=none;rounded=0;orthogonalLoop=1;jettySize=auto;html=1;endArrow=none;endFill=0;strokeWidth=2;" edge="1" parent="1" source="ns0X5BkVeZQu3-cm_ezH-90" target="ns0X5BkVeZQu3-cm_ezH-29">
          <mxGeometry relative="1" as="geometry" />
        </mxCell>
        <mxCell id="ns0X5BkVeZQu3-cm_ezH-3" style="edgeStyle=none;rounded=0;orthogonalLoop=1;jettySize=auto;html=1;endArrow=none;endFill=0;strokeWidth=2;" edge="1" parent="1" source="ns0X5BkVeZQu3-cm_ezH-90" target="ns0X5BkVeZQu3-cm_ezH-10">
          <mxGeometry relative="1" as="geometry" />
        </mxCell>
        <mxCell id="ns0X5BkVeZQu3-cm_ezH-4" style="edgeStyle=none;rounded=0;orthogonalLoop=1;jettySize=auto;html=1;endArrow=none;endFill=0;strokeWidth=2;" edge="1" parent="1" source="ns0X5BkVeZQu3-cm_ezH-90" target="ns0X5BkVeZQu3-cm_ezH-11">
          <mxGeometry relative="1" as="geometry" />
        </mxCell>
        <mxCell id="ns0X5BkVeZQu3-cm_ezH-5" style="edgeStyle=none;rounded=0;orthogonalLoop=1;jettySize=auto;html=1;endArrow=none;endFill=0;strokeWidth=2;" edge="1" parent="1" source="ns0X5BkVeZQu3-cm_ezH-90" target="ns0X5BkVeZQu3-cm_ezH-18">
          <mxGeometry relative="1" as="geometry" />
        </mxCell>
        <mxCell id="ns0X5BkVeZQu3-cm_ezH-6" style="edgeStyle=none;rounded=0;orthogonalLoop=1;jettySize=auto;html=1;endArrow=none;endFill=0;strokeWidth=2;" edge="1" parent="1" source="ns0X5BkVeZQu3-cm_ezH-90" target="ns0X5BkVeZQu3-cm_ezH-55">
          <mxGeometry relative="1" as="geometry" />
        </mxCell>
        <mxCell id="ns0X5BkVeZQu3-cm_ezH-7" style="edgeStyle=none;rounded=0;orthogonalLoop=1;jettySize=auto;html=1;endArrow=none;endFill=0;strokeWidth=2;" edge="1" parent="1" source="ns0X5BkVeZQu3-cm_ezH-90" target="ns0X5BkVeZQu3-cm_ezH-57">
          <mxGeometry relative="1" as="geometry">
            <mxPoint x="190" y="610" as="sourcePoint" />
          </mxGeometry>
        </mxCell>
        <mxCell id="ns0X5BkVeZQu3-cm_ezH-8" value="&amp;lt;&amp;lt;include&amp;gt;&amp;gt;" style="edgeStyle=none;rounded=0;orthogonalLoop=1;jettySize=auto;html=1;" edge="1" parent="1" source="ns0X5BkVeZQu3-cm_ezH-9" target="ns0X5BkVeZQu3-cm_ezH-12">
          <mxGeometry relative="1" as="geometry" />
        </mxCell>
        <mxCell id="ns0X5BkVeZQu3-cm_ezH-9" value="Add Restaurant" style="ellipse;whiteSpace=wrap;html=1;fontSize=12;fillColor=#dae8fc;strokeColor=#6c8ebf;" vertex="1" parent="1">
          <mxGeometry x="10" y="196.04" width="140" height="70" as="geometry" />
        </mxCell>
        <mxCell id="ns0X5BkVeZQu3-cm_ezH-10" value="Register" style="ellipse;whiteSpace=wrap;html=1;fontSize=12;fillColor=#dae8fc;strokeColor=#6c8ebf;" vertex="1" parent="1">
          <mxGeometry x="230" y="288.5" width="140" height="70" as="geometry" />
        </mxCell>
        <mxCell id="ns0X5BkVeZQu3-cm_ezH-11" value="Login/Logout" style="ellipse;whiteSpace=wrap;html=1;fontSize=12;fillColor=#dae8fc;strokeColor=#6c8ebf;" vertex="1" parent="1">
          <mxGeometry x="370" y="320" width="140" height="70" as="geometry" />
        </mxCell>
        <mxCell id="ns0X5BkVeZQu3-cm_ezH-12" value="View Restaurant" style="ellipse;whiteSpace=wrap;html=1;fontSize=12;fillColor=#dae8fc;strokeColor=#6c8ebf;" vertex="1" parent="1">
          <mxGeometry x="435" y="113.5" width="140" height="70" as="geometry" />
        </mxCell>
        <mxCell id="ns0X5BkVeZQu3-cm_ezH-13" value="&amp;lt;&amp;lt;extend&amp;gt;&amp;gt;" style="edgeStyle=none;rounded=0;orthogonalLoop=1;jettySize=auto;html=1;dashed=1;" edge="1" parent="1" source="ns0X5BkVeZQu3-cm_ezH-14" target="ns0X5BkVeZQu3-cm_ezH-12">
          <mxGeometry relative="1" as="geometry" />
        </mxCell>
        <mxCell id="ns0X5BkVeZQu3-cm_ezH-14" value="Edit Restaurant" style="ellipse;whiteSpace=wrap;html=1;fontSize=12;fillColor=#d5e8d4;strokeColor=#82b366;" vertex="1" parent="1">
          <mxGeometry x="710" width="140" height="70" as="geometry" />
        </mxCell>
        <mxCell id="ns0X5BkVeZQu3-cm_ezH-15" value="&amp;lt;&amp;lt;extend&amp;gt;&amp;gt;" style="edgeStyle=none;rounded=0;orthogonalLoop=1;jettySize=auto;html=1;dashed=1;" edge="1" parent="1" source="ns0X5BkVeZQu3-cm_ezH-16" target="ns0X5BkVeZQu3-cm_ezH-12">
          <mxGeometry relative="1" as="geometry" />
        </mxCell>
        <mxCell id="ns0X5BkVeZQu3-cm_ezH-16" value="Delete Restaurant" style="ellipse;whiteSpace=wrap;html=1;fontSize=12;fillColor=#d5e8d4;strokeColor=#82b366;" vertex="1" parent="1">
          <mxGeometry x="775.04" y="78.5" width="140" height="70" as="geometry" />
        </mxCell>
        <mxCell id="ns0X5BkVeZQu3-cm_ezH-17" value="&amp;lt;&amp;lt;include&amp;gt;&amp;gt;" style="edgeStyle=none;rounded=0;orthogonalLoop=1;jettySize=auto;html=1;" edge="1" parent="1" source="ns0X5BkVeZQu3-cm_ezH-18" target="ns0X5BkVeZQu3-cm_ezH-20">
          <mxGeometry relative="1" as="geometry" />
        </mxCell>
        <mxCell id="ns0X5BkVeZQu3-cm_ezH-18" value="Browse User&amp;nbsp;" style="ellipse;whiteSpace=wrap;html=1;fontSize=12;fillColor=#dae8fc;strokeColor=#6c8ebf;" vertex="1" parent="1">
          <mxGeometry x="310" y="390" width="140" height="70" as="geometry" />
        </mxCell>
        <mxCell id="ns0X5BkVeZQu3-cm_ezH-19" value="&amp;lt;&amp;lt;include&amp;gt;&amp;gt;" style="edgeStyle=none;rounded=0;orthogonalLoop=1;jettySize=auto;html=1;" edge="1" parent="1" source="ns0X5BkVeZQu3-cm_ezH-20" target="ns0X5BkVeZQu3-cm_ezH-23">
          <mxGeometry relative="1" as="geometry" />
        </mxCell>
        <mxCell id="ns0X5BkVeZQu3-cm_ezH-20" value="Find User" style="ellipse;whiteSpace=wrap;html=1;fontSize=12;fillColor=#dae8fc;strokeColor=#6c8ebf;" vertex="1" parent="1">
          <mxGeometry x="474" y="507" width="140" height="70" as="geometry" />
        </mxCell>
        <mxCell id="ns0X5BkVeZQu3-cm_ezH-21" value="&amp;lt;&amp;lt;extend&amp;gt;&amp;gt;" style="edgeStyle=none;rounded=0;orthogonalLoop=1;jettySize=auto;html=1;dashed=1;" edge="1" parent="1" source="ns0X5BkVeZQu3-cm_ezH-22" target="ns0X5BkVeZQu3-cm_ezH-20">
          <mxGeometry relative="1" as="geometry" />
        </mxCell>
        <mxCell id="ns0X5BkVeZQu3-cm_ezH-22" value="Set User Parameter:&lt;br&gt;username" style="ellipse;whiteSpace=wrap;html=1;fontSize=12;fillColor=#d5e8d4;strokeColor=#82b366;" vertex="1" parent="1">
          <mxGeometry x="740" y="515" width="140" height="70" as="geometry" />
        </mxCell>
        <mxCell id="ns0X5BkVeZQu3-cm_ezH-23" value="View User" style="ellipse;whiteSpace=wrap;html=1;fontSize=12;fillColor=#dae8fc;strokeColor=#6c8ebf;" vertex="1" parent="1">
          <mxGeometry x="510" y="367" width="140" height="70" as="geometry" />
        </mxCell>
        <mxCell id="ns0X5BkVeZQu3-cm_ezH-24" value="&amp;lt;&amp;lt;extend&amp;gt;&amp;gt;" style="edgeStyle=none;rounded=0;orthogonalLoop=1;jettySize=auto;html=1;dashed=1;" edge="1" parent="1" source="ns0X5BkVeZQu3-cm_ezH-25" target="ns0X5BkVeZQu3-cm_ezH-23">
          <mxGeometry relative="1" as="geometry" />
        </mxCell>
        <mxCell id="ns0X5BkVeZQu3-cm_ezH-25" value="Follow User" style="ellipse;whiteSpace=wrap;html=1;fontSize=12;fillColor=#d5e8d4;strokeColor=#82b366;" vertex="1" parent="1">
          <mxGeometry x="807" y="336.04" width="140" height="70" as="geometry" />
        </mxCell>
        <mxCell id="ns0X5BkVeZQu3-cm_ezH-26" value="&amp;lt;&amp;lt;extend&amp;gt;&amp;gt;" style="edgeStyle=none;rounded=0;orthogonalLoop=1;jettySize=auto;html=1;dashed=1;" edge="1" parent="1" source="ns0X5BkVeZQu3-cm_ezH-27" target="ns0X5BkVeZQu3-cm_ezH-23">
          <mxGeometry relative="1" as="geometry" />
        </mxCell>
        <mxCell id="ns0X5BkVeZQu3-cm_ezH-27" value="Unfollow User" style="ellipse;whiteSpace=wrap;html=1;fontSize=12;fillColor=#d5e8d4;strokeColor=#82b366;" vertex="1" parent="1">
          <mxGeometry x="807" y="410" width="140" height="70" as="geometry" />
        </mxCell>
        <mxCell id="ns0X5BkVeZQu3-cm_ezH-28" value="&amp;lt;&amp;lt;include&amp;gt;&amp;gt;" style="edgeStyle=none;rounded=0;orthogonalLoop=1;jettySize=auto;html=1;" edge="1" parent="1" source="ns0X5BkVeZQu3-cm_ezH-29" target="ns0X5BkVeZQu3-cm_ezH-31">
          <mxGeometry relative="1" as="geometry" />
        </mxCell>
        <mxCell id="ns0X5BkVeZQu3-cm_ezH-29" value="Browse Restaurant" style="ellipse;whiteSpace=wrap;html=1;fontSize=12;fillColor=#dae8fc;strokeColor=#6c8ebf;" vertex="1" parent="1">
          <mxGeometry x="140" y="230" width="140" height="70" as="geometry" />
        </mxCell>
        <mxCell id="ns0X5BkVeZQu3-cm_ezH-30" value="&amp;lt;&amp;lt;include&amp;gt;&amp;gt;" style="edgeStyle=none;rounded=0;orthogonalLoop=1;jettySize=auto;html=1;" edge="1" parent="1" source="ns0X5BkVeZQu3-cm_ezH-31" target="ns0X5BkVeZQu3-cm_ezH-12">
          <mxGeometry relative="1" as="geometry" />
        </mxCell>
        <mxCell id="ns0X5BkVeZQu3-cm_ezH-31" value="Find Restaurant" style="ellipse;whiteSpace=wrap;html=1;fontSize=12;fillColor=#dae8fc;strokeColor=#6c8ebf;" vertex="1" parent="1">
          <mxGeometry x="530" y="278.5" width="140" height="70" as="geometry" />
        </mxCell>
        <mxCell id="ns0X5BkVeZQu3-cm_ezH-32" value="&amp;lt;&amp;lt;extend&amp;gt;&amp;gt;" style="edgeStyle=none;rounded=0;orthogonalLoop=1;jettySize=auto;html=1;dashed=1;" edge="1" parent="1" source="ns0X5BkVeZQu3-cm_ezH-33" target="ns0X5BkVeZQu3-cm_ezH-31">
          <mxGeometry relative="1" as="geometry" />
        </mxCell>
        <mxCell id="ns0X5BkVeZQu3-cm_ezH-33" value="Set Restaurant Parameter:&lt;br&gt;name" style="ellipse;whiteSpace=wrap;html=1;fontSize=12;fillColor=#d5e8d4;strokeColor=#82b366;" vertex="1" parent="1">
          <mxGeometry x="770" y="266.03999999999996" width="160" height="70" as="geometry" />
        </mxCell>
        <mxCell id="ns0X5BkVeZQu3-cm_ezH-34" value="&amp;lt;&amp;lt;extend&amp;gt;&amp;gt;" style="edgeStyle=none;rounded=0;orthogonalLoop=1;jettySize=auto;html=1;dashed=1;" edge="1" parent="1" source="ns0X5BkVeZQu3-cm_ezH-35" target="ns0X5BkVeZQu3-cm_ezH-31">
          <mxGeometry relative="1" as="geometry" />
        </mxCell>
        <mxCell id="ns0X5BkVeZQu3-cm_ezH-35" value="Set Recommendation Parameter" style="ellipse;whiteSpace=wrap;html=1;fontSize=12;fillColor=#d5e8d4;strokeColor=#82b366;" vertex="1" parent="1">
          <mxGeometry x="590" y="148.5" width="169.92" height="69.54" as="geometry" />
        </mxCell>
        <mxCell id="ns0X5BkVeZQu3-cm_ezH-36" value="&amp;lt;&amp;lt;extend&amp;gt;&amp;gt;" style="edgeStyle=none;rounded=0;orthogonalLoop=1;jettySize=auto;html=1;dashed=1;" edge="1" parent="1" source="ns0X5BkVeZQu3-cm_ezH-37" target="ns0X5BkVeZQu3-cm_ezH-12">
          <mxGeometry relative="1" as="geometry" />
        </mxCell>
        <mxCell id="ns0X5BkVeZQu3-cm_ezH-37" value="Put/Remove like to Restaurant" style="ellipse;whiteSpace=wrap;html=1;fontSize=12;fillColor=#d5e8d4;strokeColor=#82b366;" vertex="1" parent="1">
          <mxGeometry x="544" width="140" height="70" as="geometry" />
        </mxCell>
        <mxCell id="ns0X5BkVeZQu3-cm_ezH-38" value="&amp;lt;&amp;lt;extend&amp;gt;&amp;gt;" style="edgeStyle=none;rounded=0;orthogonalLoop=1;jettySize=auto;html=1;dashed=1;" edge="1" parent="1" source="ns0X5BkVeZQu3-cm_ezH-39" target="ns0X5BkVeZQu3-cm_ezH-20">
          <mxGeometry relative="1" as="geometry" />
        </mxCell>
        <mxCell id="ns0X5BkVeZQu3-cm_ezH-39" value="Set Recommendation: Parameter" style="ellipse;whiteSpace=wrap;html=1;fontSize=12;fillColor=#d5e8d4;strokeColor=#82b366;" vertex="1" parent="1">
          <mxGeometry x="600.08" y="630" width="160" height="70" as="geometry" />
        </mxCell>
        <mxCell id="ns0X5BkVeZQu3-cm_ezH-40" style="edgeStyle=none;rounded=0;orthogonalLoop=1;jettySize=auto;html=1;endArrow=none;endFill=0;strokeWidth=2;" edge="1" parent="1" source="ns0X5BkVeZQu3-cm_ezH-43" target="ns0X5BkVeZQu3-cm_ezH-45">
          <mxGeometry relative="1" as="geometry" />
        </mxCell>
        <mxCell id="ns0X5BkVeZQu3-cm_ezH-41" style="edgeStyle=none;rounded=0;orthogonalLoop=1;jettySize=auto;html=1;endArrow=none;endFill=0;strokeWidth=2;" edge="1" parent="1" source="ns0X5BkVeZQu3-cm_ezH-43" target="ns0X5BkVeZQu3-cm_ezH-47">
          <mxGeometry relative="1" as="geometry" />
        </mxCell>
        <mxCell id="ns0X5BkVeZQu3-cm_ezH-42" style="edgeStyle=none;rounded=0;orthogonalLoop=1;jettySize=auto;html=1;endArrow=block;endFill=0;endSize=12;strokeWidth=1;" edge="1" parent="1" source="ns0X5BkVeZQu3-cm_ezH-43">
          <mxGeometry relative="1" as="geometry">
            <mxPoint x="25" y="490" as="targetPoint" />
          </mxGeometry>
        </mxCell>
        <mxCell id="ns0X5BkVeZQu3-cm_ezH-43" value="Admin" style="shape=umlActor;verticalLabelPosition=bottom;labelBackgroundColor=#ffffff;verticalAlign=top;html=1;" vertex="1" parent="1">
          <mxGeometry x="10" y="607.5" width="30" height="55" as="geometry" />
        </mxCell>
        <mxCell id="ns0X5BkVeZQu3-cm_ezH-44" value="&amp;lt;&amp;lt;include&amp;gt;&amp;gt;" style="edgeStyle=none;rounded=0;orthogonalLoop=1;jettySize=auto;html=1;" edge="1" parent="1" source="ns0X5BkVeZQu3-cm_ezH-45" target="ns0X5BkVeZQu3-cm_ezH-49">
          <mxGeometry relative="1" as="geometry" />
        </mxCell>
        <mxCell id="ns0X5BkVeZQu3-cm_ezH-45" value="Add City" style="ellipse;whiteSpace=wrap;html=1;fontSize=12;fillColor=#dae8fc;strokeColor=#6c8ebf;" vertex="1" parent="1">
          <mxGeometry x="10" y="1064.7857142857142" width="140" height="70" as="geometry" />
        </mxCell>
        <mxCell id="ns0X5BkVeZQu3-cm_ezH-46" value="&amp;lt;&amp;lt;include&amp;gt;&amp;gt;" style="edgeStyle=none;rounded=0;orthogonalLoop=1;jettySize=auto;html=1;" edge="1" parent="1" source="ns0X5BkVeZQu3-cm_ezH-47" target="ns0X5BkVeZQu3-cm_ezH-48">
          <mxGeometry relative="1" as="geometry" />
        </mxCell>
        <mxCell id="ns0X5BkVeZQu3-cm_ezH-47" value="Add Cuisine" style="ellipse;whiteSpace=wrap;html=1;fontSize=12;fillColor=#dae8fc;strokeColor=#6c8ebf;" vertex="1" parent="1">
          <mxGeometry x="80" y="900" width="140" height="70" as="geometry" />
        </mxCell>
        <mxCell id="ns0X5BkVeZQu3-cm_ezH-48" value="View Cuisine" style="ellipse;whiteSpace=wrap;html=1;fontSize=12;fillColor=#dae8fc;strokeColor=#6c8ebf;" vertex="1" parent="1">
          <mxGeometry x="329.9999999999999" y="890" width="140" height="70" as="geometry" />
        </mxCell>
        <mxCell id="ns0X5BkVeZQu3-cm_ezH-49" value="View City" style="ellipse;whiteSpace=wrap;html=1;fontSize=12;fillColor=#dae8fc;strokeColor=#6c8ebf;" vertex="1" parent="1">
          <mxGeometry x="550" y="1090" width="140" height="70" as="geometry" />
        </mxCell>
        <mxCell id="ns0X5BkVeZQu3-cm_ezH-50" value="&amp;lt;&amp;lt;extend&amp;gt;&amp;gt;" style="edgeStyle=none;rounded=0;orthogonalLoop=1;jettySize=auto;html=1;dashed=1;" edge="1" parent="1" source="ns0X5BkVeZQu3-cm_ezH-51" target="ns0X5BkVeZQu3-cm_ezH-48">
          <mxGeometry relative="1" as="geometry" />
        </mxCell>
        <mxCell id="ns0X5BkVeZQu3-cm_ezH-51" value="Delete Cuisine" style="ellipse;whiteSpace=wrap;html=1;fontSize=12;fillColor=#d5e8d4;strokeColor=#82b366;" vertex="1" parent="1">
          <mxGeometry x="130" y="985" width="140" height="70" as="geometry" />
        </mxCell>
        <mxCell id="ns0X5BkVeZQu3-cm_ezH-52" value="&amp;lt;&amp;lt;extend&amp;gt;&amp;gt;" style="edgeStyle=none;rounded=0;orthogonalLoop=1;jettySize=auto;html=1;dashed=1;" edge="1" parent="1" source="ns0X5BkVeZQu3-cm_ezH-53" target="ns0X5BkVeZQu3-cm_ezH-49">
          <mxGeometry relative="1" as="geometry" />
        </mxCell>
        <mxCell id="ns0X5BkVeZQu3-cm_ezH-53" value="Delete City" style="ellipse;whiteSpace=wrap;html=1;fontSize=12;fillColor=#d5e8d4;strokeColor=#82b366;" vertex="1" parent="1">
          <mxGeometry x="700" y="930" width="140" height="70" as="geometry" />
        </mxCell>
        <mxCell id="ns0X5BkVeZQu3-cm_ezH-54" value="&amp;lt;&amp;lt;include&amp;gt;&amp;gt;" style="edgeStyle=none;rounded=0;orthogonalLoop=1;jettySize=auto;html=1;" edge="1" parent="1" source="ns0X5BkVeZQu3-cm_ezH-55" target="ns0X5BkVeZQu3-cm_ezH-59">
          <mxGeometry relative="1" as="geometry" />
        </mxCell>
        <mxCell id="ns0X5BkVeZQu3-cm_ezH-55" value="Browse City" style="ellipse;whiteSpace=wrap;html=1;fontSize=12;fillColor=#dae8fc;strokeColor=#6c8ebf;" vertex="1" parent="1">
          <mxGeometry x="230" y="460" width="140" height="70" as="geometry" />
        </mxCell>
        <mxCell id="ns0X5BkVeZQu3-cm_ezH-56" value="&amp;lt;&amp;lt;include&amp;gt;&amp;gt;" style="edgeStyle=none;rounded=0;orthogonalLoop=1;jettySize=auto;html=1;" edge="1" parent="1" source="ns0X5BkVeZQu3-cm_ezH-57" target="ns0X5BkVeZQu3-cm_ezH-63">
          <mxGeometry relative="1" as="geometry" />
        </mxCell>
        <mxCell id="ns0X5BkVeZQu3-cm_ezH-57" value="Browse Cuisine" style="ellipse;whiteSpace=wrap;html=1;fontSize=12;fillColor=#dae8fc;strokeColor=#6c8ebf;" vertex="1" parent="1">
          <mxGeometry x="130" y="592.5" width="140" height="70" as="geometry" />
        </mxCell>
        <mxCell id="ns0X5BkVeZQu3-cm_ezH-58" value="&amp;lt;&amp;lt;include&amp;gt;&amp;gt;" style="edgeStyle=none;rounded=0;orthogonalLoop=1;jettySize=auto;html=1;" edge="1" parent="1" source="ns0X5BkVeZQu3-cm_ezH-59" target="ns0X5BkVeZQu3-cm_ezH-49">
          <mxGeometry relative="1" as="geometry" />
        </mxCell>
        <mxCell id="ns0X5BkVeZQu3-cm_ezH-59" value="Find City" style="ellipse;whiteSpace=wrap;html=1;fontSize=12;fillColor=#dae8fc;strokeColor=#6c8ebf;" vertex="1" parent="1">
          <mxGeometry x="630" y="720" width="140" height="70" as="geometry" />
        </mxCell>
        <mxCell id="ns0X5BkVeZQu3-cm_ezH-60" value="&amp;lt;&amp;lt;extend&amp;gt;&amp;gt;" style="edgeStyle=none;rounded=0;orthogonalLoop=1;jettySize=auto;html=1;dashed=1;" edge="1" parent="1" source="ns0X5BkVeZQu3-cm_ezH-61" target="ns0X5BkVeZQu3-cm_ezH-59">
          <mxGeometry relative="1" as="geometry" />
        </mxCell>
        <mxCell id="ns0X5BkVeZQu3-cm_ezH-61" value="Set City Parameter:&lt;br&gt;name" style="ellipse;whiteSpace=wrap;html=1;fontSize=12;fillColor=#d5e8d4;strokeColor=#82b366;" vertex="1" parent="1">
          <mxGeometry x="745" y="850" width="160" height="70" as="geometry" />
        </mxCell>
        <mxCell id="ns0X5BkVeZQu3-cm_ezH-62" value="&amp;lt;&amp;lt;include&amp;gt;&amp;gt;" style="edgeStyle=none;rounded=0;orthogonalLoop=1;jettySize=auto;html=1;" edge="1" parent="1" source="ns0X5BkVeZQu3-cm_ezH-63" target="ns0X5BkVeZQu3-cm_ezH-48">
          <mxGeometry relative="1" as="geometry" />
        </mxCell>
        <mxCell id="ns0X5BkVeZQu3-cm_ezH-63" value="Find Cuisine" style="ellipse;whiteSpace=wrap;html=1;fontSize=12;fillColor=#dae8fc;strokeColor=#6c8ebf;" vertex="1" parent="1">
          <mxGeometry x="130" y="800" width="140" height="70" as="geometry" />
        </mxCell>
        <mxCell id="ns0X5BkVeZQu3-cm_ezH-64" value="&amp;lt;&amp;lt;extend&amp;gt;&amp;gt;" style="edgeStyle=none;rounded=0;orthogonalLoop=1;jettySize=auto;html=1;dashed=1;" edge="1" parent="1" source="ns0X5BkVeZQu3-cm_ezH-65" target="ns0X5BkVeZQu3-cm_ezH-63">
          <mxGeometry relative="1" as="geometry" />
        </mxCell>
        <mxCell id="ns0X5BkVeZQu3-cm_ezH-65" value="Set Cuisine Parameter:&lt;br&gt;name" style="ellipse;whiteSpace=wrap;html=1;fontSize=12;fillColor=#d5e8d4;strokeColor=#82b366;" vertex="1" parent="1">
          <mxGeometry x="380" y="810" width="160" height="70" as="geometry" />
        </mxCell>
        <mxCell id="ns0X5BkVeZQu3-cm_ezH-66" value="&amp;lt;&amp;lt;extend&amp;gt;&amp;gt;" style="edgeStyle=none;rounded=0;orthogonalLoop=1;jettySize=auto;html=1;dashed=1;" edge="1" parent="1" source="ns0X5BkVeZQu3-cm_ezH-67" target="ns0X5BkVeZQu3-cm_ezH-48">
          <mxGeometry relative="1" as="geometry" />
        </mxCell>
        <mxCell id="ns0X5BkVeZQu3-cm_ezH-67" value="Put Like/Remove Like&lt;br&gt;(User Preferences)" style="ellipse;whiteSpace=wrap;html=1;fontSize=12;fillColor=#d5e8d4;strokeColor=#82b366;" vertex="1" parent="1">
          <mxGeometry x="435" y="1030" width="140" height="70" as="geometry" />
        </mxCell>
        <mxCell id="ns0X5BkVeZQu3-cm_ezH-68" value="&amp;lt;&amp;lt;extend&amp;gt;&amp;gt;" style="rounded=0;orthogonalLoop=1;jettySize=auto;html=1;dashed=1;" edge="1" parent="1" source="ns0X5BkVeZQu3-cm_ezH-69" target="ns0X5BkVeZQu3-cm_ezH-12">
          <mxGeometry relative="1" as="geometry" />
        </mxCell>
        <mxCell id="ns0X5BkVeZQu3-cm_ezH-69" value="View Statistics" style="ellipse;whiteSpace=wrap;html=1;fontSize=12;fillColor=#d5e8d4;strokeColor=#82b366;" vertex="1" parent="1">
          <mxGeometry x="380" width="140" height="70" as="geometry" />
        </mxCell>
        <mxCell id="ns0X5BkVeZQu3-cm_ezH-70" style="edgeStyle=none;rounded=0;orthogonalLoop=1;jettySize=auto;html=1;endArrow=classic;endFill=1;dashed=1;" edge="1" parent="1" source="ns0X5BkVeZQu3-cm_ezH-72" target="ns0X5BkVeZQu3-cm_ezH-31">
          <mxGeometry relative="1" as="geometry" />
        </mxCell>
        <mxCell id="ns0X5BkVeZQu3-cm_ezH-71" value="&amp;lt;&amp;lt;extend&amp;gt;&amp;gt;" style="text;html=1;resizable=0;points=[];align=center;verticalAlign=middle;labelBackgroundColor=#ffffff;fontSize=11;" vertex="1" connectable="0" parent="ns0X5BkVeZQu3-cm_ezH-70">
          <mxGeometry x="0.2147" y="-1" relative="1" as="geometry">
            <mxPoint as="offset" />
          </mxGeometry>
        </mxCell>
        <mxCell id="ns0X5BkVeZQu3-cm_ezH-72" value="Set Liked Parameter" style="ellipse;whiteSpace=wrap;html=1;fontSize=12;fillColor=#d5e8d4;strokeColor=#82b366;" vertex="1" parent="1">
          <mxGeometry x="760.0799999999999" y="174" width="169.92" height="69.54" as="geometry" />
        </mxCell>
        <mxCell id="ns0X5BkVeZQu3-cm_ezH-73" style="edgeStyle=none;rounded=0;orthogonalLoop=1;jettySize=auto;html=1;dashed=1;endArrow=classic;endFill=1;" edge="1" parent="1" source="ns0X5BkVeZQu3-cm_ezH-75" target="ns0X5BkVeZQu3-cm_ezH-20">
          <mxGeometry relative="1" as="geometry" />
        </mxCell>
        <mxCell id="ns0X5BkVeZQu3-cm_ezH-74" value="&amp;lt;&amp;lt;extend&amp;gt;&amp;gt;" style="text;html=1;resizable=0;points=[];align=center;verticalAlign=middle;labelBackgroundColor=#ffffff;fontSize=11;" vertex="1" connectable="0" parent="ns0X5BkVeZQu3-cm_ezH-73">
          <mxGeometry x="-0.1968" y="2" relative="1" as="geometry">
            <mxPoint x="-1" as="offset" />
          </mxGeometry>
        </mxCell>
        <mxCell id="ns0X5BkVeZQu3-cm_ezH-75" value="Set User Parameter: followers/following" style="ellipse;whiteSpace=wrap;html=1;fontSize=12;fillColor=#d5e8d4;strokeColor=#82b366;" vertex="1" parent="1">
          <mxGeometry x="765.04" y="592.5" width="160" height="70" as="geometry" />
        </mxCell>
        <mxCell id="ns0X5BkVeZQu3-cm_ezH-76" value="Edit Cuisine" style="ellipse;whiteSpace=wrap;html=1;fontSize=12;fillColor=#d5e8d4;strokeColor=#82b366;" vertex="1" parent="1">
          <mxGeometry x="280" y="1020" width="140" height="70" as="geometry" />
        </mxCell>
        <mxCell id="ns0X5BkVeZQu3-cm_ezH-77" value="&amp;lt;&amp;lt;extend&amp;gt;&amp;gt;" style="edgeStyle=none;rounded=0;orthogonalLoop=1;jettySize=auto;html=1;dashed=1;" edge="1" parent="1" source="ns0X5BkVeZQu3-cm_ezH-76" target="ns0X5BkVeZQu3-cm_ezH-48">
          <mxGeometry relative="1" as="geometry">
            <mxPoint x="295.36875492193144" y="964.8969069925552" as="targetPoint" />
          </mxGeometry>
        </mxCell>
        <mxCell id="ns0X5BkVeZQu3-cm_ezH-78" value="Edit City" style="ellipse;whiteSpace=wrap;html=1;fontSize=12;fillColor=#d5e8d4;strokeColor=#82b366;" vertex="1" parent="1">
          <mxGeometry x="745" y="1010" width="140" height="70" as="geometry" />
        </mxCell>
        <mxCell id="ns0X5BkVeZQu3-cm_ezH-79" value="&amp;lt;&amp;lt;extend&amp;gt;&amp;gt;" style="edgeStyle=none;rounded=0;orthogonalLoop=1;jettySize=auto;html=1;dashed=1;" edge="1" parent="1" source="ns0X5BkVeZQu3-cm_ezH-78" target="ns0X5BkVeZQu3-cm_ezH-49">
          <mxGeometry relative="1" as="geometry">
            <mxPoint x="937.759227163881" y="1071.1603529085423" as="targetPoint" />
          </mxGeometry>
        </mxCell>
        <mxCell id="ns0X5BkVeZQu3-cm_ezH-80" style="edgeStyle=none;rounded=0;orthogonalLoop=1;jettySize=auto;html=1;endArrow=none;endFill=0;strokeWidth=2;" edge="1" parent="1" source="ns0X5BkVeZQu3-cm_ezH-85" target="ns0X5BkVeZQu3-cm_ezH-90">
          <mxGeometry relative="1" as="geometry">
            <mxPoint x="200" y="510" as="targetPoint" />
          </mxGeometry>
        </mxCell>
        <mxCell id="ns0X5BkVeZQu3-cm_ezH-81" style="edgeStyle=none;rounded=0;orthogonalLoop=1;jettySize=auto;html=1;endArrow=classic;endFill=1;strokeWidth=1;" edge="1" parent="1" source="ns0X5BkVeZQu3-cm_ezH-85" target="ns0X5BkVeZQu3-cm_ezH-49">
          <mxGeometry relative="1" as="geometry" />
        </mxCell>
        <mxCell id="ns0X5BkVeZQu3-cm_ezH-82" value="&amp;lt;&amp;lt;include&amp;gt;&amp;gt;" style="text;html=1;resizable=0;points=[];align=center;verticalAlign=middle;labelBackgroundColor=#ffffff;fontSize=11;" vertex="1" connectable="0" parent="ns0X5BkVeZQu3-cm_ezH-81">
          <mxGeometry x="-0.3581" y="-3" relative="1" as="geometry">
            <mxPoint y="-1" as="offset" />
          </mxGeometry>
        </mxCell>
        <mxCell id="ns0X5BkVeZQu3-cm_ezH-83" style="edgeStyle=none;rounded=0;orthogonalLoop=1;jettySize=auto;html=1;endArrow=classic;endFill=1;strokeWidth=1;" edge="1" parent="1" source="ns0X5BkVeZQu3-cm_ezH-85" target="ns0X5BkVeZQu3-cm_ezH-57">
          <mxGeometry relative="1" as="geometry" />
        </mxCell>
        <mxCell id="ns0X5BkVeZQu3-cm_ezH-84" value="&amp;lt;&amp;lt;include&amp;gt;&amp;gt;" style="text;html=1;resizable=0;points=[];align=center;verticalAlign=middle;labelBackgroundColor=#ffffff;fontSize=11;" vertex="1" connectable="0" parent="ns0X5BkVeZQu3-cm_ezH-83">
          <mxGeometry x="0.136" y="1" relative="1" as="geometry">
            <mxPoint x="-1" as="offset" />
          </mxGeometry>
        </mxCell>
        <mxCell id="ns0X5BkVeZQu3-cm_ezH-85" value="View User Preferences" style="ellipse;whiteSpace=wrap;html=1;fontSize=12;fillColor=#dae8fc;strokeColor=#6c8ebf;" vertex="1" parent="1">
          <mxGeometry x="475" y="700" width="140" height="70" as="geometry" />
        </mxCell>
        <mxCell id="ns0X5BkVeZQu3-cm_ezH-86" value="Set Cuisine Parameter:&lt;br&gt;Liked (User Preferences)" style="ellipse;whiteSpace=wrap;html=1;fontSize=12;fillColor=#d5e8d4;strokeColor=#82b366;" vertex="1" parent="1">
          <mxGeometry x="290" y="720" width="160" height="70" as="geometry" />
        </mxCell>
        <mxCell id="ns0X5BkVeZQu3-cm_ezH-87" value="&amp;lt;&amp;lt;extend&amp;gt;&amp;gt;" style="edgeStyle=none;rounded=0;orthogonalLoop=1;jettySize=auto;html=1;dashed=1;" edge="1" parent="1" source="ns0X5BkVeZQu3-cm_ezH-86" target="ns0X5BkVeZQu3-cm_ezH-63">
          <mxGeometry relative="1" as="geometry">
            <mxPoint x="134.11570444693393" y="629.2809965139822" as="targetPoint" />
          </mxGeometry>
        </mxCell>
        <mxCell id="ns0X5BkVeZQu3-cm_ezH-88" value="Change User City (User Preferences)" style="ellipse;whiteSpace=wrap;html=1;fontSize=12;fillColor=#d5e8d4;strokeColor=#82b366;" vertex="1" parent="1">
          <mxGeometry x="807" y="1080" width="140" height="70" as="geometry" />
        </mxCell>
        <mxCell id="ns0X5BkVeZQu3-cm_ezH-89" value="&amp;lt;&amp;lt;extend&amp;gt;&amp;gt;" style="edgeStyle=none;rounded=0;orthogonalLoop=1;jettySize=auto;html=1;dashed=1;" edge="1" parent="1" source="ns0X5BkVeZQu3-cm_ezH-88" target="ns0X5BkVeZQu3-cm_ezH-49">
          <mxGeometry relative="1" as="geometry">
            <mxPoint x="721.3262070751939" y="1219.0669846574688" as="targetPoint" />
          </mxGeometry>
        </mxCell>
        <mxCell id="ns0X5BkVeZQu3-cm_ezH-90" value="User" style="shape=umlActor;verticalLabelPosition=bottom;labelBackgroundColor=#ffffff;verticalAlign=top;html=1;" vertex="1" parent="1">
          <mxGeometry x="10" y="410" width="30" height="60" as="geometry" />
        </mxCell>
        <mxCell id="ns0X5BkVeZQu3-cm_ezH-91" value="Delete User" style="ellipse;whiteSpace=wrap;html=1;fontSize=12;fillColor=#d5e8d4;strokeColor=#82b366;" vertex="1" parent="1">
          <mxGeometry x="650" y="450" width="140" height="70" as="geometry" />
        </mxCell>
        <mxCell id="ns0X5BkVeZQu3-cm_ezH-92" value="&amp;lt;&amp;lt;extend&amp;gt;&amp;gt;" style="edgeStyle=none;rounded=0;orthogonalLoop=1;jettySize=auto;html=1;dashed=1;" edge="1" parent="1" source="ns0X5BkVeZQu3-cm_ezH-91" target="ns0X5BkVeZQu3-cm_ezH-23">
          <mxGeometry relative="1" as="geometry">
            <mxPoint x="819.7194252644954" y="445.3391995251584" as="sourcePoint" />
            <mxPoint x="657.3066763348465" y="421.61523947640626" as="targetPoint" />
          </mxGeometry>
        </mxCell>
      </root>
    </mxGraphModel>
  </diagram>
</mxfile>
